<svg aria-hidden="true" style="position:absolute;width:0;height:0;overflow:hidden" xmlns="http://www.w3.org/2000/svg"><defs><symbol id="icon-phone" viewBox="0 0 32 32"><path d="M22 20c-2 2-2 4-4 4s-4-2-6-4-4-4-4-6 2-2 4-4-4-8-6-8-6 6-6 6c0 4 4.109 12.109 8 16s12 8 16 8c0 0 6-4 6-6s-6-8-8-6z"/></symbol><symbol id="icon-user-tie" viewBox="0 0 32 32"><path d="M10 6a6 6 0 1 1 12 0 6 6 0 0 1-12 0zm14.002 8h-1.107l-6.222 12.633L19 15l-3-3-3 3 2.327 11.633L9.105 14H7.998C4 14 4 16.687 4 20v10h24V20c0-3.313 0-6-3.998-6z"/></symbol></defs></svg>